<svg version="1" xmlns="http://www.w3.org/2000/svg" width="1008" height="1008" viewBox="0 0 756.000000 756.000000"><path d="M582.5 166.8c-12.4 1.4-28.3 7.1-44.5 16.1l-10.5 5.9-13 .6c-13.8.6-16.7.9-28.5 2.6-9.7 1.5-10.6 1.6-16.5 3-2.7.6-5.7 1.3-6.5 1.5-13.8 2.9-37.6 10.7-50.9 16.7-43.9 19.6-77 44.9-105.1 80.4-2.1 2.6-14 20.4-14 20.8 0 .2-1.5 3-3.3 6.3-8.7 15.4-16.7 38.9-18.2 53.6-.3 2.9-.8 6.2-1.1 7.4-.5 2.4-15.3 14.3-17.8 14.3-3 0-3.2-7.4-.7-21.5.6-3.3 1.3-7.4 1.5-9 .3-1.7.8-4.1 1.1-5.5.5-2.4.7-4.7 2.1-19.5.3-3.9 1-8.9 1.4-11.2.8-4.8.5-32.3-.5-40.3-1.6-13.3-6.1-31-10.2-41-12.5-30.3-38-50.6-68.3-54.6-25.5-3.4-62.4 2.4-87.6 13.6-24.4 11-46.1 29.6-65.2 55.9l-5.3 7.3 5.8-3.2c9.6-5.4 15.5-10 27.2-21.2 6.2-5.9 13.1-12.1 15.4-13.6 8.8-6 26.3-11.6 40.2-13 11.6-1.1 32.8-.5 40 1.2 18.3 4.1 31.9 11.3 43.8 23 13.7 13.7 23.3 35.2 27.1 61.1.4 2.2 1 6.5 1.5 9.5 1.6 9.7 1 35.5-1 49-3.2 21.2-12.1 53.1-20.1 72-3.8 9-14.5 30-23.7 46.4-11.9 21.5-17.2 30.3-24.4 41.1-5.8 8.7-24.1 33.8-26.2 36.1-.5.6-3.9 4.4-7.5 8.4s-10.7 10.4-15.7 14.2c-8.6 6.3-10.9 8.8-8.2 8.8 1.8 0 20-8.1 23.8-10.5 7.7-5 19.3-6.7 34.1-5 16.5 1.9 16.6 1.9 20.5-10.5 5.9-18 15.4-37.4 43.3-88 1.3-2.5 4-7.4 6-11 2-3.6 4.8-8.7 6.4-11.3 1.5-2.6 2.8-5 2.8-5.2 0-.2 2.2-3.7 4.9-7.8 6.2-9.3 12.2-16.5 24.5-29.2 8.4-8.7 9.6-9.7 9.7-7.5 0 1.4.2 3.2.4 4 .2.8.6 3.3 1 5.4 1.8 10.3 8.9 25.9 15.9 34.8 17 21.4 43.4 31.2 74.1 27.4 7.4-.9 23-6 26.7-8.6 1.5-1.1 3-2 3.4-2 .3 0 3.4-2 6.8-4.4 19.6-14 34.8-39.9 41.2-69.9 2.8-13.5 3.5-30.9 2.2-52.6-.6-8.5-1.2-11.4-3.4-15.8-3-5.8-6.2-9.4-5.1-5.8.3 1.1.8 6 1.2 10.8.3 4.8.8 9.8 1.1 11 .6 3.2.6 32.3-.1 38.2-1.6 14.2-6 30.3-12 43.1-9.6 20.8-26.2 37.3-45.5 45.1-11.6 4.6-27.7 6.7-38.5 4.8-28.7-4.9-48.5-33.9-51.2-74.8l-.6-9.9 3-2.6c7.3-6.4 16.8-14.8 18.3-16.2.9-.8 3.6-3.2 6.1-5.2 2.4-2.1 5.5-4.7 6.9-5.9 16.9-14.4 51.2-41.7 69.5-55.4 4.4-3.3 8.2-6.2 8.5-6.5.6-.6 20.2-14.5 34-24 30.2-20.8 67.5-42.7 98-57.3 30.1-14.5 29.1-14.2 39.9-12.2 15.3 2.8 27.8 7.6 38.6 14.6l6.3 4.2-8.6 6c-15.6 10.8-30 23.9-42.5 38.6-4 4.7-8 9.3-9 10.3-4.5 4.7-25 32.9-36.2 49.8-6.7 10.2-19.4 30.4-28.2 45-14.1 23.4-27.8 45.8-46.8 76.9-33.7 55.1-53.5 80.3-76 96.5-15.7 11.4-27.2 16.2-44.8 19.1-9.5 1.6-27.2 1.3-33.7-.4-7.4-2.1-14.7-6.8-18.3-12.1-2.5-3.6-2.1-4.7 1.8-5.3 7.4-1.2 13.5-9 13.5-17.3-.1-6.9-5.2-15.4-10.7-17.5-3.7-1.4-12.1-1.1-15.7.6-14.5 6.9-16.3 27-3.8 41.5 13.8 16.3 44.3 22.2 78.2 15.5 1.4-.3 3.4-.7 4.6-.9 5.3-1 16.3-4.9 24.7-8.8 24.7-11.3 51.5-33.3 76.1-62.3 25.4-29.8 37-47.8 96.1-148 22.5-38.2 45.4-73.5 56.7-87.6 9.1-11.3 28-30.9 29.8-30.9.5 0 2.6 2.1 4.5 4.7 15.7 21.5 17.3 48.5 4.6 82.1-6.1 16.3-19.6 33.4-34.4 43.4-11.7 7.9-29.8 14.8-43.2 16.4-6.6.8-10.8 1.2-14.2 1.3-3 .1-3.3.4-3.3 3.1s.3 3 3.3 3.1c33.5 1 54.1 10.7 63.7 30.2 4.7 9.6 6 17.6 5.5 33.7-.8 28.1-9.7 56.5-23.7 75.9-11.2 15.4-26.3 26.8-43.1 32.4-8.9 3-13.3 3.8-24.3 4.2-17.5.7-29.4-4.7-36.8-16.5-3.5-5.5-4.5-10.6-4.1-19.9.6-14.7 4.7-23.6 12.3-26.8l3.4-1.4-2.4-1.8c-6.3-4.8-17.5-5.3-25.6-1.2-15.8 8.1-21 31.2-10.7 48.6 5.7 9.9 18.9 18.6 34.2 22.6 10.3 2.7 31.5 3.4 42.9 1.4 20.4-3.7 44.6-14.8 61.7-28.3 11.3-9 27-27.7 34.4-40.9 9.9-17.7 12.8-29.7 12.8-51.8-.1-12.6-.4-14.8-2.8-21.8-5.4-15.4-14.4-26.1-28.9-34-5.3-3-18.3-7.2-24.8-8.2-2.5-.3-5.4-.8-6.5-1-1.1-.2-3.3-.4-5-.5-3.8-.1-1.7-1.4 4-2.5 2.2-.5 4.5-.9 5-1 .6-.2 5.3-1.7 10.5-3.5 40.9-13.8 70-42.3 75.5-73.8 4.9-28.6-3.5-52.9-25.8-73.8l-6.5-6.1 6.7-4c13-7.7 30.2-13.9 49.6-17.7 9.2-1.9 36.3-9.4 38.5-10.8 1.2-.7 1-.8-.5-.4-1.1.2-5.1.7-9 1.1-10.5.9-20.5 2.1-24 2.9-1.1.2-5.4 1.1-9.5 2-18 3.7-36.2 10.2-51.6 18.1l-8 4.2-3.5-1.8c-7-3.8-24.3-10.1-35.2-12.8l-11.2-2.9 4-1c6.5-1.7 12.6-2.3 23.8-2.4 8.9 0 11.4.3 14.9 2.1 2.3 1.1 4.4 1.8 4.6 1.6.6-.6-3.7-6.9-7.5-11.2-4.6-5.1-13.5-12.3-17.3-14-3.4-1.5-13.3-2.3-19.5-1.5zM516 195.6c0 .3-3 2.4-6.7 4.9-9.8 6.3-40.5 28.6-64.3 46.5-22.2 16.7-35.6 27.1-72.5 56.5-18.9 15.1-64.7 51.2-70 55.2-.6.5-3 2.4-5.5 4.4-6.4 5.1-7.3 5.5-6.6 3.3.3-1.1.8-3.5 1.1-5.4 1.9-11.8 8.1-28.8 15.6-42.9 20.8-39.1 56.9-72.8 101.3-94.6C421 217.3 441 209 447 207.4c.8-.2 7.4-2 14.7-3.9 7.2-1.9 16.2-3.9 20-4.5 3.7-.6 7.9-1.3 9.2-1.5 1.3-.2 6.1-.7 10.5-1.1 4.5-.3 8.2-.7 8.3-.8.4-.3 6.3-.3 6.3 0z"/></svg>